<?xml version="1.0" encoding="UTF-8"?>
<svg version="1.1" xmlns="http://www.w3.org/2000/svg" width="300" height="300">
<path d="M0 0 C99 0 198 0 300 0 C300 99 300 198 300 300 C201 300 102 300 0 300 C0 201 0 102 0 0 Z " fill="#FCFCFC" transform="translate(0,0)"/>
<path d="M0 0 C0.66 0 1.32 0 2 0 C3.26953125 1.30175781 3.26953125 1.30175781 4.8125 3.203125 C8.0847517 7.05582799 11.56381862 10.59387518 15.1875 14.109375 C15.73849365 14.64759888 16.2894873 15.18582275 16.85717773 15.74035645 C19.15711958 17.98675344 21.45883308 20.23081845 23.77880859 22.45654297 C25.48892591 24.10039501 27.1829595 25.75944963 28.875 27.421875 C29.40504639 27.92297791 29.93509277 28.42408081 30.48120117 28.94036865 C31.9296875 30.37792969 31.9296875 30.37792969 34 33 C33.88378906 35.20239258 33.88378906 35.20239258 33 37 C32.66484375 37.77214844 32.3296875 38.54429688 31.984375 39.33984375 C31.57703125 40.19707031 31.1696875 41.05429688 30.75 41.9375 C23.9820664 56.63078193 20.65347319 68.56567154 20.75 84.75 C20.74226563 86.03132813 20.73453125 87.31265625 20.7265625 88.6328125 C20.78311029 116.51087432 31.63371714 140.36516759 50.52734375 160.625 C70.81465274 180.11107246 97.52828851 189.47808253 125.3203125 189.1484375 C141.06557358 188.76563123 156.41032188 183.98088406 170.046875 176.2578125 C173.46903518 174.80022576 174.52642009 174.84895226 178 176 C180.06591797 177.90283203 180.06591797 177.90283203 182.1171875 180.3828125 C185.43569455 184.24912785 188.84220786 187.88938082 192.5078125 191.4296875 C193.89226562 192.77546875 193.89226562 192.77546875 195.3046875 194.1484375 C196.73179945 195.52811082 198.15921363 196.90753471 199.59765625 198.27539062 C201.01627583 199.62780796 202.41860636 200.99724807 203.8203125 202.3671875 C204.64805176 203.16237793 205.47579102 203.95756836 206.32861328 204.77685547 C208 207 208 207 207.99853516 209.12792969 C206.73108178 211.50417234 205.54051161 212.25978711 203.203125 213.5859375 C202.41591064 214.03888184 201.62869629 214.49182617 200.81762695 214.95849609 C199.97031006 215.42594238 199.12299316 215.89338867 198.25 216.375 C197.3839917 216.86178223 196.5179834 217.34856445 195.62573242 217.85009766 C180.86487011 226.05895155 165.74500575 232.25439814 149 235 C148.02430243 235.16792494 147.04860485 235.33584988 146.04334068 235.50886345 C136.81380103 236.9788075 127.7661331 237.27366025 118.44775391 237.22705078 C116.83979805 237.2264851 115.23184167 237.22680628 113.62388611 237.22793579 C109.30455846 237.22850419 104.98534432 237.21683392 100.6660428 237.20278788 C96.13506443 237.19019408 91.60408278 237.18910326 87.0730896 237.18673706 C78.51349174 237.18054751 69.95394562 237.16417124 61.39437044 237.14403808 C51.64091336 237.12160001 41.88745368 237.11066586 32.13397717 237.10064721 C12.08928936 237.07980248 -7.95535205 237.04467616 -28 237 C-28.04681257 215.58081784 -28.0820341 194.16164417 -28.10362434 172.74242115 C-28.11391749 162.79611814 -28.12794016 152.849847 -28.15087891 142.90356445 C-28.17087301 134.2299164 -28.18373068 125.55629145 -28.18817699 116.88262099 C-28.1907742 112.29405621 -28.19683754 107.70555746 -28.21146011 103.11701393 C-28.22513935 98.7889981 -28.22920196 94.46107487 -28.22621536 90.13303947 C-28.22676094 88.55335103 -28.23067631 86.97365916 -28.23841095 85.39398956 C-28.29629824 72.95025531 -27.18302018 61.05567839 -23.6875 49.0625 C-23.46876221 48.30090576 -23.25002441 47.53931152 -23.0246582 46.75463867 C-18.14828618 30.04838743 -11.69419299 13.25341872 0 0 Z " fill="#020202" transform="translate(28,63)"/>
<path d="M0 0 C0.67957854 -0.00085442 1.35915708 -0.00170885 2.05932891 -0.00258917 C4.34718604 -0.00424245 6.63497062 0.00127493 8.92282104 0.00672913 C10.55856321 0.00701106 12.19430551 0.00685315 13.83004761 0.00628662 C18.28021149 0.00599887 22.73034859 0.01189193 27.18050623 0.01886058 C31.82767254 0.0250979 36.47483942 0.02569822 41.12200928 0.02688599 C49.92635808 0.02999818 58.73069452 0.03821007 67.53503788 0.04823548 C77.55665731 0.05940007 87.57827733 0.06490794 97.59990144 0.06993091 C118.21910421 0.08039277 138.83829583 0.09799006 159.45748901 0.12025452 C159.48082259 21.46865513 159.49847045 42.81705364 159.50930119 64.1654644 C159.51446316 74.07731934 159.521504 83.98916637 159.53292847 93.90101624 C159.54287829 102.5375685 159.54934316 111.17411504 159.55157751 119.81067288 C159.5528841 124.38601015 159.55596676 128.96133103 159.56321907 133.53666306 C159.56998398 137.83918231 159.57210501 142.14167835 159.57059669 146.44420242 C159.57087281 148.0268949 159.57287515 149.60958811 159.57669449 151.192276 C159.58163907 153.34610336 159.58048445 155.49984203 159.57774353 157.65367126 C159.57912622 159.46499448 159.57912622 159.46499448 159.58053684 161.31291008 C159.45748901 164.12025452 159.45748901 164.12025452 158.45748901 166.12025452 C158.15919708 168.15809048 157.89413888 170.20082848 157.64498901 172.24525452 C156.5185764 180.3888005 154.64321949 188.20105939 152.45748901 196.12025452 C152.19452026 197.1141217 151.93155151 198.10798889 151.66061401 199.13197327 C149.70204013 205.75601795 146.75865484 211.76192673 143.58248901 217.87025452 C143.17176147 218.66278625 142.76103394 219.45531799 142.33786011 220.27186584 C136.339032 231.48885264 136.339032 231.48885264 132.45748901 235.12025452 C128.16143591 235.12025452 127.95403408 235.1185539 125.14181519 232.35389709 C124.51824631 231.74939224 123.89467743 231.14488739 123.25221252 230.52206421 C122.59163345 229.85966232 121.93105438 229.19726044 121.25045776 228.51478577 C120.56566849 227.83856674 119.88087921 227.16234772 119.17533875 226.46563721 C117.73051898 225.03230579 116.29091563 223.59369988 114.85617065 222.15028381 C112.6532648 219.94105406 110.42507157 217.75978859 108.19381714 215.57923889 C106.79441066 214.18437793 105.39656948 212.78794443 104.00045776 211.38978577 C103.32975754 210.73750504 102.65905731 210.0852243 101.96803284 209.41317749 C97.45408774 204.80671497 97.45408774 204.80671497 97.47140503 201.31166077 C98.5747037 198.85976453 99.8049403 196.60316285 101.20748901 194.30775452 C103.86292604 189.59835295 105.68571759 184.9495323 107.26998901 179.80775452 C107.57984741 178.80361511 107.57984741 178.80361511 107.89596558 177.77919006 C110.40239246 169.32579151 110.70500307 161.19591357 110.75265503 152.44740295 C110.76407088 150.99710757 110.78435391 149.54685064 110.81417847 148.09681702 C111.35911114 121.50166718 100.74655638 98.09571639 82.88815308 78.61000061 C75.50377848 70.92067403 66.59318839 65.46998839 57.45748901 60.12025452 C56.73432495 59.64716858 56.01116089 59.17408264 55.26608276 58.68666077 C36.20886122 46.71529459 5.71284067 45.66070875 -15.79495239 50.55653381 C-23.58219339 52.66753288 -30.64333083 55.80011537 -37.65969849 59.76478577 C-40.72934571 61.20810228 -42.21275291 61.47214356 -45.54251099 61.12025452 C-47.35862732 59.90541077 -47.35862732 59.90541077 -49.04763794 58.18275452 C-49.68792435 57.54209045 -50.32821075 56.90142639 -50.98789978 56.24134827 C-51.66205429 55.54138733 -52.3362088 54.84142639 -53.03079224 54.12025452 C-53.73399094 53.40998108 -54.43718964 52.69970764 -55.16169739 51.96791077 C-57.40480174 49.69682004 -59.62990188 47.4089656 -61.85501099 45.12025452 C-63.37273696 43.57745152 -64.89160406 42.03577023 -66.41165161 40.49525452 C-70.13527686 36.71650345 -73.8442669 32.92384058 -77.54251099 29.12025452 C-69.4063896 20.79029343 -59.2392854 15.53098618 -48.54251099 11.12025452 C-47.57184692 10.70002014 -46.60118286 10.27978577 -45.60110474 9.84681702 C-34.37644912 5.21085162 -22.48848404 2.45389519 -10.3989563 1.37513733 C-0.38101645 -0.00028734 -0.38101645 -0.00028734 0 0 Z " fill="#020202" transform="translate(140.54251098632813,-0.1202545166015625)"/>
<path d="M0 0 C45.54 0 91.08 0 138 0 C138 45.54 138 91.08 138 138 C137.67 138 137.34 138 137 138 C136.87471924 137.2251123 136.74943848 136.45022461 136.62036133 135.65185547 C133.39059248 115.39872153 133.39059248 115.39872153 127 96 C126.59523438 94.84757812 126.19046875 93.69515625 125.7734375 92.5078125 C119.80133354 75.98848399 109.64689519 61.98342415 98 49 C96.99707672 47.75234424 95.99652393 46.50277294 95 45.25 C90.91503277 40.52675664 85.93004466 36.79377492 81 33 C80.47374023 32.59346191 79.94748047 32.18692383 79.40527344 31.76806641 C65.49175697 21.12268592 50.52425544 13.68537091 34 8 C33.13761719 7.68289062 32.27523437 7.36578125 31.38671875 7.0390625 C22.93522732 4.00673342 14.24405562 2.86302649 5.3125 2.34375 C3 2 3 2 0 0 Z " fill="#FCFCFC" transform="translate(162,0)"/>
<path d="M0 0 C0.33 0 0.66 0 1 0 C1.08451416 0.59200195 1.16902832 1.18400391 1.25610352 1.79394531 C5.51653145 30.75481106 15.56926487 57.12029612 34.25 79.9375 C34.81501221 80.6284375 35.38002441 81.319375 35.9621582 82.03125 C46.00948261 94.17371745 57.17370038 104.0146707 70.76171875 112.0703125 C72.73229725 113.24457761 74.68048361 114.45914628 76.58203125 115.7421875 C93.42764187 126.70319951 114.37962891 131.18866426 134 134 C134 134.33 134 134.66 134 135 C89.78 135 45.56 135 0 135 C0 90.45 0 45.9 0 0 Z " fill="#FCFCFC" transform="translate(0,165)"/>
<path d="M0 0 C9.37547063 5.37545696 13.17581861 11.74295978 16.296875 21.87109375 C16.49023438 22.49757812 16.68359375 23.1240625 16.8828125 23.76953125 C19.15322545 35.29294793 16.90914944 45.34059741 10.83984375 55.25 C7.1077375 60.5970546 2.85685625 64.55417444 -3.703125 65.87109375 C-11.14121907 66.61063656 -17.83169387 65.58891661 -24.0234375 61.2421875 C-32.28448129 54.31131178 -37.29541138 45.81082564 -42.203125 36.37109375 C-49.43418487 21.6226903 -49.43418487 21.6226903 -62.703125 12.87109375 C-67.51127913 11.98893655 -70.69190397 12.36548324 -75.078125 14.55859375 C-80.58874407 19.41318674 -81.32731275 23.86637447 -81.86328125 31.00390625 C-82.14610439 38.06218811 -80.65984141 44.02496079 -76.640625 49.87109375 C-74.30849376 52.27845503 -73.4394917 52.83361401 -70.09375 53.00390625 C-62.35040415 53.00111067 -62.35040415 53.00111067 -54.703125 51.87109375 C-53.383125 53.85109375 -52.063125 55.83109375 -50.703125 57.87109375 C-51.85615135 61.45828684 -54.01139456 63.36244733 -57.31640625 65.1015625 C-63.27869106 67.02393584 -70.31368204 67.1117777 -76.2109375 64.953125 C-82.5499077 61.22928129 -86.9333752 55.65698075 -89.703125 48.87109375 C-91.91410946 36.60875442 -93.12199834 22.23950118 -86.48828125 11.26171875 C-82.97208877 6.55294458 -79.33045008 2.00220988 -73.703125 -0.12890625 C-65.86622977 -0.9956176 -58.40295084 -1.18773271 -51.64453125 3.30078125 C-48.41677677 5.91156053 -45.2714537 8.59255197 -42.703125 11.87109375 C-42.703125 12.53109375 -42.703125 13.19109375 -42.703125 13.87109375 C-42.043125 13.87109375 -41.383125 13.87109375 -40.703125 13.87109375 C-40.35121094 14.50499023 -39.99929687 15.13888672 -39.63671875 15.79199219 C-29.58802695 36.89501989 -29.58802695 36.89501989 -13.703125 52.87109375 C-8.37827821 53.8289168 -2.55694927 53.29800588 2.296875 50.87109375 C3.58852925 49.12270231 3.58852925 49.12270231 4.296875 46.87109375 C4.80089844 45.98679688 5.30492187 45.1025 5.82421875 44.19140625 C8.84160798 37.38827403 8.43502095 28.24026803 6.109375 21.18359375 C3.62551393 16.64412351 1.18545592 14.50062072 -3.703125 12.87109375 C-8.75248967 12.58011341 -13.78926897 12.56073214 -18.703125 13.87109375 C-20.353125 11.89109375 -22.003125 9.91109375 -23.703125 7.87109375 C-22.19677035 3.65330072 -19.46300078 2.09632635 -15.703125 -0.12890625 C-10.38276212 -1.90236054 -5.24389807 -2.19000945 0 0 Z " fill="#0A0A0A" transform="translate(187.703125,117.12890625)"/>
<path d="M0 0 C0.33 0 0.66 0 1 0 C1 4.95 1 9.9 1 15 C0.01 15.33 -0.98 15.66 -2 16 C-1.85936865 13.70800823 -1.71234057 11.41640814 -1.5625 9.125 C-1.48128906 7.84882813 -1.40007812 6.57265625 -1.31640625 5.2578125 C-1 2 -1 2 0 0 Z " fill="#C5C5C5" transform="translate(299,164)"/>
<path d="M0 0 C2.43816585 -0.0809723 4.87364384 -0.14046972 7.3125 -0.1875 C8.34793945 -0.22520508 8.34793945 -0.22520508 9.40429688 -0.26367188 C14.55674183 -0.33834499 14.55674183 -0.33834499 16.98046875 1.51171875 C17.31691406 2.00285156 17.65335938 2.49398438 18 3 C15.56152549 2.88602456 13.12486826 2.75929026 10.6875 2.625 C9.65206055 2.57859375 9.65206055 2.57859375 8.59570312 2.53125 C4.93009211 2.31875081 3.12099208 2.08066139 0 0 Z " fill="#BDBDBD" transform="translate(162,0)"/>
</svg>
